<?xml version="1.0" encoding="iso-8859-1"?>
<!-- Uploaded to: SVG Repo, www.svgrepo.com, Generator: SVG Repo Mixer Tools -->
<svg height="800px" width="800px" version="1.1" id="Layer_1" xmlns="http://www.w3.org/2000/svg" xmlns:xlink="http://www.w3.org/1999/xlink" 
	 viewBox="0 0 512 512" xml:space="preserve">
<circle style="fill:#6B7F9E;" cx="256" cy="256" r="256"/>
<ellipse style="fill:#5D718F;" cx="256" cy="426.545" rx="196.965" ry="13.483"/>
<polygon style="fill:#FFE356;" points="80.535,102.582 323.781,102.582 334.531,398.85 69.785,398.85 "/>
<g>
	<path style="fill:#FCD34E;" d="M136.655,130.46h5.284c0.547,1.822,0.547,3.644,0,5.466h-4.191
		c0.729,45.187,17.674,74.158,39.174,86.912c8.381,4.92,17.492,7.47,26.602,7.47l0,0c9.11,0,18.221-2.551,26.784-7.47
		c21.5-12.754,38.446-41.725,39.174-86.912h-4.191c-0.547-1.822-0.547-3.644,0-5.466h5.284c1.275,0,2.186,0.364,3.098,1.275
		c0.911,0.911,1.275,1.822,1.275,3.098c-0.364,47.92-18.585,78.895-41.907,92.561c-9.293,5.466-19.314,8.199-29.335,8.199l0,0
		c-10.021,0-20.043-2.733-29.335-8.199c-23.322-13.665-41.361-44.641-41.907-92.561c0-1.275,0.364-2.186,1.275-3.098
		c0.911-0.911,1.822-1.275,3.098-1.275H136.655z"/>
	<polygon style="fill:#FCD34E;" points="333.073,359.675 333.256,364.413 71.243,364.413 71.243,359.675 	"/>
</g>
<g>
	<circle style="fill:#6B7F9E;" cx="133.557" cy="129.913" r="7.288"/>
	<circle style="fill:#6B7F9E;" cx="270.759" cy="129.913" r="7.288"/>
</g>
<path style="fill:#FFFFFF;" d="M135.197,127.18h5.284c0.547,1.822,0.547,3.644,0,5.466h-4.191
	c0.729,45.187,17.674,74.158,39.174,86.912c8.382,4.92,17.492,7.47,26.602,7.47l0,0c9.11,0,18.221-2.551,26.784-7.47
	c21.5-12.754,38.446-41.725,39.174-86.912h-4.191c-0.547-1.822-0.547-3.644,0-5.466h5.284c1.275,0,2.186,0.364,3.098,1.275
	c0.911,0.911,1.275,1.822,1.275,3.098c-0.364,47.92-18.585,78.895-41.907,92.561c-9.293,5.466-19.314,8.199-29.335,8.199l0,0
	c-10.021,0-20.043-2.733-29.335-8.199c-23.322-13.665-41.361-44.641-41.907-92.561c0-1.275,0.364-2.186,1.275-3.098
	c0.911-0.911,1.822-1.275,3.098-1.275H135.197z"/>
<g>
	<polygon style="fill:#FCD34E;" points="327.607,209.537 334.531,398.85 267.297,398.85 274.221,209.537 	"/>
	<polygon style="fill:#FCD34E;" points="333.073,359.675 333.256,364.413 268.572,364.413 268.754,359.675 	"/>
</g>
<polygon style="fill:#83CF8F;" points="279.869,209.537 435.291,209.537 442.215,398.85 272.945,398.85 "/>
<g>
	<path style="fill:#75BD80;" d="M315.764,227.211h3.28c0.364,1.093,0.364,2.369,0,3.462h-2.551
		c0.364,28.971,11.297,47.374,24.962,55.573c5.466,3.098,11.297,4.737,17.127,4.737l0,0c5.831,0,11.661-1.64,17.127-4.737
		c13.848-8.199,24.598-26.602,24.962-55.573h-2.733c-0.364-1.093-0.364-2.369,0-3.462h3.462c0.729,0,1.458,0.182,2.004,0.729
		c0.547,0.547,0.729,1.275,0.729,2.004c-0.182,30.611-11.843,50.471-26.784,59.217c-5.831,3.462-12.39,5.284-18.767,5.284l0,0
		c-6.377,0-12.937-1.822-18.767-5.284c-14.941-8.746-26.42-28.424-26.784-59.217c0-0.729,0.182-1.458,0.729-2.004
		S315.035,227.211,315.764,227.211z"/>
	<polygon style="fill:#75BD80;" points="441.304,373.888 441.304,376.803 273.856,376.803 273.856,373.888 	"/>
</g>
<g>
	<circle style="fill:#6B7F9E;" cx="313.759" cy="226.847" r="4.737"/>
	<circle style="fill:#6B7F9E;" cx="401.401" cy="226.847" r="4.737"/>
</g>
<path style="fill:#FFFFFF;" d="M314.853,225.207h3.28c0.364,1.093,0.364,2.369,0,3.462h-2.551
	c0.364,28.971,11.297,47.374,24.962,55.573c5.466,3.098,11.297,4.737,17.127,4.737l0,0c5.831,0,11.661-1.64,17.127-4.737
	c13.848-8.199,24.598-26.602,24.962-55.573h-2.733c-0.364-1.093-0.364-2.369,0-3.462h3.462c0.729,0,1.458,0.364,2.004,0.729
	c0.547,0.547,0.729,1.275,0.729,2.004c-0.182,30.611-11.843,50.471-26.784,59.217c-5.831,3.462-12.39,5.284-18.767,5.284l0,0
	c-6.377,0-12.937-1.822-18.767-5.284c-14.941-8.746-26.42-28.424-26.784-59.217c0-0.729,0.182-1.458,0.729-2.004
	C313.395,225.389,314.124,225.207,314.853,225.207z"/>
</svg>